<svg width="68" height="16" viewBox="0 0 68 16" fill="none" xmlns="http://www.w3.org/2000/svg">
<g clip-path="url(#clip0_238_386)">
<path d="M67.0033 0.705888C66.7654 0.39216 66.5274 0.156864 65.3378 0.078432C65.0205 0.078432 64.0688 0 62.4033 0C58.0412 0 55.0274 1.33333 53.5204 3.9216C53.917 1.33344 51.3791 0 45.8272 0C39.3237 0 35.1996 2.58816 33.534 7.8432C32.8995 9.804 32.8995 11.3726 33.3754 12.6275H31.7892C30.5995 12.706 29.0133 12.7844 27.9823 12.7844C25.603 12.7844 24.096 12.3922 23.5409 11.6079C23.065 10.902 23.065 9.56872 23.6995 7.60792C24.7306 4.39224 27.1893 2.9804 31.1547 2.9804C33.2168 2.9804 35.1996 3.21569 35.1996 3.21569C35.4375 3.21569 35.5961 2.90197 35.5961 2.66667L35.5168 2.43137L35.3582 1.33334C35.2789 0.627454 34.7237 0.23531 33.772 0.0784464C32.8995 1.44043e-05 32.1858 1.44e-05 31.2341 1.44e-05H31.1547C25.9995 1.44e-05 22.3511 1.72545 20.3683 5.01969C21.0822 1.64721 18.7028 1.44e-05 13.2303 1.44e-05C10.1371 1.44e-05 7.91643 0.0784464 6.64747 0.23531C5.61643 0.392173 4.98195 0.784334 4.74395 1.49021L4.26808 2.90197C4.18876 3.13726 4.34739 3.29413 4.66464 3.29413C4.90257 3.29413 5.8543 3.13726 7.44056 3.05883C9.58191 2.90197 11.0889 2.82353 12.12 2.82353C15.1338 2.82353 16.4822 3.60785 16.0063 5.09809C15.927 5.41182 15.6891 5.64712 15.2925 5.72555C12.4373 6.19614 10.1372 6.50987 8.47171 6.74515C3.71299 7.37261 0.93707 8.78435 0.223391 11.1373C-0.807648 14.353 1.7303 15.9216 7.83731 15.9216C10.8511 15.9216 13.4684 15.7648 15.5305 15.3726C16.7202 15.1373 17.3547 14.902 17.5926 14.1177L18.703 10.5099C18.6236 14.1177 21.0823 15.9217 26.3169 15.9217C28.5375 15.9217 30.679 15.8433 31.71 15.6864C32.741 15.5296 33.2962 15.2943 33.5342 14.51L33.7722 13.4119C34.8825 15.1374 37.3412 16.0001 41.0688 16.0001C45.0344 16.0001 47.3343 15.9216 47.9689 15.6864C48.5241 15.5295 48.8413 15.2158 48.9999 14.8236C48.9999 14.7452 48.9999 14.6667 49.0793 14.5883L49.5551 13.0981C49.6344 12.8628 49.4758 12.706 49.1586 12.706L46.6206 12.8628C44.9551 12.9412 43.6069 13.0197 42.655 13.0197C40.8308 13.0197 39.6413 12.8628 38.9274 12.6275C37.8964 12.2354 37.4205 11.5295 37.4998 10.353L45.5103 9.33336C49.0794 8.86276 51.538 7.76473 52.7277 6.03928L49.9518 15.2158C49.8725 15.3726 49.9518 15.5295 50.0311 15.6079C50.1104 15.6863 50.269 15.7648 50.5863 15.7648H53.9173C54.4725 15.7648 54.7104 15.4511 54.7897 15.2158L57.7242 5.09815C58.1208 3.76483 59.3104 3.13735 61.5311 3.13735C63.5139 3.13735 64.9414 3.13735 65.8932 3.21579H65.9726C66.1312 3.21579 66.4484 3.13735 66.6864 2.74519L67.1622 1.33343C67.1622 1.09814 67.1622 0.862842 67.0036 0.705978L67.0033 0.705888ZM13.5478 12.7843C12.5168 12.9412 11.0099 13.0196 9.10637 13.0196C5.69605 13.0196 4.26837 12.3137 4.66493 10.9804C4.98217 10.0392 5.85459 9.41176 7.28212 9.25494L14.9753 8.23534L13.5478 12.7843ZM49.0004 4.62749C48.6831 5.64709 47.1761 6.35293 44.4796 6.74509L38.0554 7.60784L38.214 7.05882C38.7692 5.33338 39.483 4.2353 40.4347 3.60778C41.3864 2.98032 42.9726 2.66659 45.1934 2.66659C48.1279 2.74502 49.3968 3.37248 49.0003 4.62739L49.0004 4.62749Z" fill="#83B81A"/>
</g>
<defs>
<clipPath id="clip0_238_386">
<rect width="67.1628" height="16" fill="white"/>
</clipPath>
</defs>
</svg>
