<svg width="38" height="24" viewBox="0 0 38 24" fill="none" xmlns="http://www.w3.org/2000/svg">
<g clip-path="url(#clip0_232_1020)">
<path d="M3.40417 0.00185015C3.16455 0.00213936 2.92493 0.00370176 2.68533 0.00653648C2.44783 0.0143463 2.20558 0.0268421 1.96967 0.0690153C1.61313 0.124599 1.27507 0.262898 0.983288 0.472534C0.69151 0.68217 0.454354 0.957152 0.291333 1.27486C0.1805 1.49041 0.110833 1.70909 0.0696667 1.94651C0.0253333 2.17768 0.0110833 2.4151 0.00633333 2.64939C0.00309195 2.75819 0.000980728 2.86701 0 2.97585L0 21.0276C0 21.1369 0.00316667 21.2431 0.00475 21.3509C0.0110833 21.5852 0.0253333 21.8242 0.0680833 22.0569C0.110833 22.2912 0.182083 22.5114 0.292917 22.727C0.51125 23.151 0.860569 23.4956 1.29042 23.711C1.50892 23.8204 1.73058 23.8907 1.97125 23.9328C2.20558 23.975 2.44625 23.9891 2.68375 23.9953L3.01308 24H34.9869L35.3147 23.9953C35.5522 23.9891 35.7944 23.975 36.0303 23.9328C36.2678 23.8907 36.4911 23.8219 36.708 23.7126C37.1389 23.4974 37.489 23.1521 37.7071 22.727C37.8179 22.5114 37.8892 22.2928 37.9303 22.0553C37.9731 21.8242 37.9873 21.5868 37.9937 21.3525C37.9968 21.2431 37.9984 21.1369 37.9984 21.0276L38 20.6433V2.97428C38 2.86495 37.9968 2.75873 37.9937 2.65096C37.9907 2.41438 37.9695 2.17836 37.9303 1.94494C37.8546 1.47457 37.63 1.03986 37.2888 0.702937C36.9476 0.366019 36.5071 0.144142 36.0303 0.0690153C35.7937 0.030525 35.5545 0.00963993 35.3147 0.00653648C35.0756 -0.000139138 34.8365 -0.00170188 34.5974 0.00185015H3.40417ZM3.40417 0.80158H34.979C35.0835 0.80158 35.1864 0.804705 35.2909 0.806267C35.473 0.812515 35.6867 0.821886 35.8847 0.856249C36.0573 0.887489 36.2013 0.934348 36.3391 1.00308C36.6168 1.14216 36.8425 1.3648 36.9835 1.6388C37.056 1.78039 37.1062 1.93209 37.1323 2.08865C37.1672 2.28077 37.1767 2.49163 37.1814 2.67282C37.1846 2.77435 37.1862 2.87588 37.1862 2.98053V21.0244C37.1862 21.126 37.1862 21.2275 37.1814 21.3306C37.1767 21.5102 37.1672 21.7211 37.1308 21.9163C37.0965 22.1462 37.0067 22.3645 36.8689 22.5529C36.7311 22.7413 36.5494 22.8942 36.3391 22.9988C36.1965 23.0699 36.0438 23.1194 35.8863 23.1456C35.6909 23.1763 35.4935 23.193 35.2957 23.1956L34.979 23.2003H3.01783C2.91333 23.2003 2.80725 23.1971 2.7075 23.1956C2.50862 23.193 2.31019 23.1763 2.11375 23.1456C1.94117 23.1144 1.79708 23.0675 1.65775 22.9988C1.38001 22.8602 1.15467 22.6374 1.01492 22.3631C0.942572 22.2214 0.892392 22.0697 0.866083 21.9132C0.834638 21.7205 0.817703 21.5258 0.815417 21.3306C0.813293 21.228 0.812237 21.1255 0.81225 21.0229V2.97897C0.81225 2.87744 0.81225 2.77435 0.815417 2.67126C0.82175 2.4932 0.83125 2.28389 0.866083 2.08552C0.89775 1.91683 0.94525 1.77469 1.01492 1.63724C1.15599 1.36369 1.3817 1.14158 1.65933 1.00308C1.80267 0.932374 1.95579 0.8829 2.11375 0.856249C2.31167 0.821886 2.52542 0.810953 2.7075 0.806267C2.81042 0.803143 2.91492 0.803142 3.01783 0.80158H3.40417ZM10.8617 6.58088C10.3867 6.60587 9.804 6.89171 9.46833 7.29314C9.16592 7.63677 8.89833 8.19908 8.968 8.72703C9.50317 8.77389 10.0368 8.46306 10.374 8.07413C10.6986 7.67114 10.9203 7.13226 10.8617 6.58244V6.58088ZM14.3561 7.23691V15.8168H15.7051V12.885H17.5734C19.2803 12.885 20.4788 11.7307 20.4788 10.0547C20.4788 8.3834 19.304 7.23535 17.6162 7.23535L14.3561 7.23691ZM15.7051 8.35997H17.2599C18.43 8.35997 19.0982 8.97851 19.0982 10.061C19.0982 11.1418 18.43 11.7666 17.2552 11.7666H15.7051V8.35997ZM10.7113 8.82856C9.99875 8.84418 9.39708 9.26591 9.04875 9.26591C8.67667 9.26591 8.10983 8.85355 7.4955 8.86448C7.09588 8.87432 6.70584 8.98721 6.36417 9.19191C6.0225 9.39661 5.74111 9.686 5.548 10.0313C4.71358 11.4495 5.32792 13.5535 6.14017 14.7094C6.53442 15.2811 7.00942 15.9105 7.63483 15.8871C8.22542 15.8652 8.45817 15.5091 9.17542 15.5091C9.89425 15.5091 10.1033 15.8871 10.7271 15.8762C11.3763 15.8652 11.7832 15.3045 12.1758 14.7313C12.6287 14.0799 12.8139 13.4504 12.825 13.4176C12.8139 13.4051 11.5742 12.9365 11.5631 11.5292C11.5504 10.3515 12.5368 9.79073 12.5828 9.75637C12.0254 8.94414 11.1578 8.85355 10.8569 8.83012C10.8084 8.82712 10.7598 8.82764 10.7113 8.82856ZM23.7009 9.44866C22.1334 9.44866 21.1581 10.2812 21.0853 11.4105H22.3155C22.4295 10.8513 22.8998 10.4952 23.6534 10.4952C24.4483 10.4952 24.9248 10.9107 24.9248 11.6057V12.0884L23.1879 12.1884C21.6822 12.2727 20.8319 12.9444 20.8319 14.0377C20.8319 15.1624 21.6996 15.923 22.9409 15.923C23.7738 15.923 24.5749 15.4841 24.9423 14.7875H24.9723V15.8168H26.22V11.5058C26.22 10.2515 25.2383 9.44866 23.7009 9.44866ZM26.7726 9.56112L29.0621 15.8231C29.0621 15.8278 28.9465 16.1979 28.9465 16.2089C28.7486 16.8493 28.424 17.1008 27.8207 17.1008C27.7115 17.1008 27.4946 17.1008 27.398 17.0773V18.1176C27.493 18.1348 27.8208 18.1473 27.9284 18.1473C29.2426 18.1473 29.8696 17.66 30.4111 16.1433L32.7861 9.56112H31.4118L29.8094 14.6516H29.7857L28.1818 9.55956L26.7726 9.56112ZM24.9248 12.9803V13.4739C24.9248 14.2877 24.2123 14.9062 23.3035 14.9062C22.6037 14.9062 22.1461 14.5501 22.1461 14.0018C22.1461 13.4676 22.5863 13.1271 23.3637 13.0756L24.9248 12.9803Z" fill="white"/>
</g>
<defs>
<clipPath id="clip0_232_1020">
<rect width="38" height="24" fill="white"/>
</clipPath>
</defs>
</svg>
