<svg width="75" height="16" viewBox="0 0 75 16" fill="none" xmlns="http://www.w3.org/2000/svg">
<g clip-path="url(#clip0_238_400)">
<path d="M22.7329 0.156982C20.8428 0.275321 20.0227 1.1888 19.4073 1.83762C18.7479 2.53016 18.3813 3.98869 18.3813 3.98869V0.186713H11.0121C10.4553 0.186713 9.92752 0.422223 9.53198 0.982434C9.12193 1.52807 7.43709 4.32796 7.43709 4.32796H36.5788V0.156982H22.7329ZM59.4202 0.156982C57.5451 0.275321 56.7099 1.1888 56.0945 1.83762C55.4351 2.53016 55.0686 3.98869 55.0686 3.98869V4.32796H74.2329V0.156982H59.4202ZM37.2962 0.172139V4.32796H41.4431V0.172139H37.2962ZM50.8933 0.172139V4.32796H55.0245V0.172139H50.8933ZM7.26077 4.57863L0.140354 15.8382H5.00465L11.8618 5.07938L7.26077 4.57863ZM37.3403 4.63751V10.7001C37.3339 10.576 37.3258 10.3999 37.3258 10.3999C37.2231 9.78084 36.051 7.03983 33.531 6.80374C32.0219 6.65625 18.5866 5.58071 18.5866 5.58071C18.8505 6.93665 19.4514 7.62919 19.8614 8.01218C20.7993 8.91109 22.2788 9.17691 22.2788 9.17691C22.6303 9.20606 32.6372 10.0461 32.6372 10.0461C32.9597 10.0607 33.5606 10.1493 33.5461 10.945C33.5461 11.0482 33.4579 11.7413 32.6958 11.7413H18.2056V5.55098L14.1765 5.2566C14.162 5.2566 14.162 15.8382 14.162 15.8382H33.531C36.9007 15.1603 37.2527 12.0654 37.2527 12.0654C37.3119 11.7273 37.3322 11.4294 37.3403 11.1653V12.0211C37.9997 15.5578 41.1792 15.8382 41.1792 15.8382C41.1792 15.8382 41.5017 15.8528 41.5602 15.8674H51.0104C51.0104 15.8674 55.0541 15.5433 55.0541 11.623L55.0245 5.83138L50.9519 5.58071V10.3999C50.9519 10.3999 50.9368 11.785 49.604 11.785H42.6297C42.6297 11.785 41.4431 11.6818 41.4431 10.4145V4.93248L37.3403 4.63751ZM55.318 5.83138C55.7135 7.23104 56.2558 7.65892 56.6658 8.04191C57.6037 8.95539 58.995 9.16175 58.995 9.16175C59.3471 9.19148 69.4567 10.0461 69.4567 10.0461C69.7786 10.0607 70.438 10.0904 70.438 10.8861C70.438 11.1222 70.3209 11.3729 70.1742 11.5052C70.1742 11.5052 69.8227 11.697 69.4857 11.697H55.0981L55.0541 15.8674H69.8813C73.603 15.6464 74.1302 12.0946 74.1302 12.0946C74.2619 11.1665 74.1598 10.3999 74.1598 10.3999C74.0571 9.55991 72.8705 7.02467 70.3354 6.77459C68.8414 6.6271 55.318 5.83138 55.318 5.83138Z" fill="white"/>
</g>
<defs>
<clipPath id="clip0_238_400">
<rect width="74.386" height="16" fill="white"/>
</clipPath>
</defs>
</svg>
