<svg width="382" height="81" viewBox="0 0 382 81" fill="none" xmlns="http://www.w3.org/2000/svg">
<path d="M116.481 0C106.736 0.61013 102.508 5.31985 99.335 8.66505C95.9351 12.2357 94.0453 19.7556 94.0453 19.7556V0.153284H56.0516C53.181 0.153284 50.4599 1.36753 48.4206 4.25588C46.3065 7.06909 37.6199 21.5048 37.6199 21.5048H187.866V0H116.481ZM305.63 0C295.963 0.61013 291.657 5.31985 288.484 8.66505C285.084 12.2357 283.194 19.7556 283.194 19.7556V21.5048H382V0H305.63ZM191.565 0.0781451V21.5048H212.945V0.0781451H191.565ZM261.668 0.0781451V21.5048H282.967V0.0781451H261.668ZM36.7109 22.7972L0 80.8497H25.0789L60.4323 25.379L36.7109 22.7972ZM191.792 23.1008V54.3587C191.76 53.7185 191.718 52.8108 191.718 52.8108C191.188 49.6189 185.145 35.4867 172.153 34.2695C164.372 33.5091 95.1038 27.9638 95.1038 27.9638C96.4643 34.9547 99.5622 38.5253 101.676 40.5C106.511 45.1346 114.14 46.5051 114.14 46.5051C115.952 46.6554 167.545 50.9864 167.545 50.9864C169.207 51.0616 172.305 51.5184 172.23 55.621C172.23 56.153 171.776 59.7266 167.847 59.7266H93.1392V27.8105L72.3662 26.2927C72.2914 26.2927 72.2914 80.8497 72.2914 80.8497H172.153C189.526 77.3542 191.341 61.3977 191.341 61.3977C191.646 59.6545 191.751 58.1186 191.792 56.7571V61.1693C195.192 79.404 211.585 80.8497 211.585 80.8497C211.585 80.8497 213.247 80.9249 213.549 81H262.272C262.272 81 283.12 79.3289 283.12 59.1165L282.967 29.2562L261.97 27.9638V52.8108C261.97 52.8108 261.892 59.952 255.021 59.952H219.063C219.063 59.952 212.945 59.42 212.945 52.8859V24.6216L191.792 23.1008ZM284.48 29.2562C286.519 36.4725 289.315 38.6786 291.429 40.6533C296.265 45.363 303.438 46.427 303.438 46.427C305.253 46.5803 357.376 50.9864 357.376 50.9864C359.035 51.0616 362.435 51.2148 362.435 55.3174C362.435 56.5347 361.831 57.8271 361.074 58.5093C361.074 58.5093 359.262 59.4982 357.525 59.4982H283.347L283.12 81H359.564C378.753 79.8609 381.471 61.548 381.471 61.548C382.15 56.7631 381.623 52.8108 381.623 52.8108C381.094 48.4798 374.976 35.4086 361.906 34.1192C354.203 33.3588 284.48 29.2562 284.48 29.2562Z" fill="white"/>
</svg>
