<svg width="82" height="16" viewBox="0 0 82 16" fill="none" xmlns="http://www.w3.org/2000/svg">
<g clip-path="url(#clip0_238_439)">
<path fill-rule="evenodd" clip-rule="evenodd" d="M8.25575 13.6656C4.07187 13.8369 0.779635 11.061 0.779635 7.08564C0.779635 3.11027 4.07187 0.334369 8.25575 0.505721C10.4686 0.626889 11.8776 1.33712 12.5302 1.66606C12.6159 1.70926 12.6886 1.74588 12.7483 1.77373V5.20077H12.2339C11.7537 3.076 10.4849 1.36248 8.29004 1.36248C5.6151 1.36248 3.48887 4.0013 3.48887 7.08564C3.48887 10.17 5.58081 12.8088 8.29004 12.8088C10.4849 12.8088 11.7537 11.061 12.2339 8.97051H12.7483V12.3976C12.684 12.4275 12.6048 12.4682 12.5105 12.5166C11.8495 12.8557 10.4466 13.5756 8.25575 13.6656ZM13.9829 7.11991C13.9829 3.45298 16.8293 0.505721 20.4987 0.505721C24.1682 0.505721 27.0146 3.45298 27.0146 7.11991C27.0146 10.7868 24.1682 13.7341 20.4987 13.7341C16.8293 13.7341 13.9829 10.7526 13.9829 7.11991ZM16.6578 7.08564C16.6578 10.2042 18.201 12.9116 20.4987 12.9116C22.7964 12.9116 24.3397 10.17 24.3397 7.08564C24.3397 3.96703 22.7964 1.25967 20.4987 1.25967C18.201 1.25967 16.6578 4.0013 16.6578 7.08564ZM44.1959 1.25967C43.0642 1.29394 41.9668 2.1507 41.9668 3.21308C41.9668 4.69414 43.2727 5.21067 44.6931 5.77249C46.395 6.44569 48.2614 7.18393 48.2427 9.72446C48.2427 11.6093 46.6994 13.6998 43.5444 13.6998C42.1301 13.6998 40.9649 13.2018 40.259 12.9001C40.0577 12.8141 39.8938 12.744 39.772 12.706V9.55311H40.2178C40.7322 11.7464 42.2755 12.8431 43.6129 12.8431C44.9847 12.8431 45.8764 12.1577 45.8764 10.684C45.8764 9.37326 44.6681 8.81884 43.339 8.20895C41.7144 7.46346 39.9092 6.63509 39.9092 4.2412C39.9092 1.808 42.0354 0.505721 44.1617 0.505721C45.5918 0.505721 46.6781 0.941107 47.3078 1.19353C47.4482 1.2498 47.5659 1.29698 47.6597 1.32821V4.20693H47.3167C46.6651 1.808 45.4305 1.25967 44.1959 1.25967ZM66.8986 0.985507L66.0756 1.43102C65.8698 1.5681 65.6983 1.808 65.6983 2.08216V12.1234C65.6983 12.3976 65.8355 12.6374 66.0756 12.7745L66.8986 13.22V13.4257H61.9946V13.22L62.8176 12.7745C63.0234 12.6374 63.1949 12.3976 63.1949 12.1234V2.08216C63.1949 1.808 63.0577 1.5681 62.8176 1.43102L61.9946 0.985507V0.779885H66.8986V0.985507ZM27.1175 0.985507V0.814155H32.9132C35.2795 0.814155 37.3714 1.43102 37.3714 4.41255C37.3714 5.5092 36.6855 7.73678 33.9763 7.73678C34.285 7.9424 34.7651 8.18229 35.4853 8.28511C36.8227 10.7526 38.4345 13.6998 40.1492 14.6251C38.4002 15.0021 36.1368 13.8712 35.451 13.0144C34.9708 12.4318 31.8844 7.11991 31.8844 7.11991H32.8446C33.9077 7.11991 34.8337 6.16034 34.8337 4.75525V4.03558C34.8337 2.63049 33.8048 1.49956 32.8446 1.49956H31.2671C31.1299 1.49956 31.027 1.53383 30.9584 1.63665C30.8898 1.77373 30.8213 1.91081 30.8213 2.08216V12.1234C30.8213 12.3976 30.9584 12.6374 31.1985 12.7745L32.0216 13.22V13.4257H27.1175V13.22L27.9406 12.7745C28.1463 12.6374 28.3178 12.3976 28.3178 12.1234V2.08216C28.3178 1.808 28.1806 1.5681 27.9406 1.43102L27.1175 0.985507ZM67.9275 0.985507V0.814155H73.7232C76.0895 0.814155 78.1814 1.43102 78.1814 4.41255C78.1814 5.5092 77.4955 7.73678 74.7863 7.73678C75.0949 7.9424 75.575 8.18229 76.2952 8.28511C77.6327 10.7526 79.2445 13.6998 80.9592 14.6251C79.2102 15.0021 76.9468 13.8712 76.2609 13.0144C75.7808 12.4318 72.6943 7.11991 72.6943 7.11991H73.6546C74.7177 7.11991 75.6436 6.16034 75.6436 4.75525V4.03558C75.6436 2.63049 74.6148 1.49956 73.6546 1.49956H72.077C71.9399 1.49956 71.837 1.53383 71.7684 1.63665C71.6998 1.77373 71.6312 1.91081 71.6312 2.08216V12.1234C71.6312 12.3976 71.7684 12.6374 72.0085 12.7745L72.8315 13.22V13.4257H67.9275V13.22L68.7505 12.7745C68.9563 12.6374 69.1278 12.3976 69.1278 12.1234V2.08216C69.1278 1.808 68.9906 1.5681 68.7505 1.43102L67.9275 0.985507ZM60.177 12.3976C60.2456 12.5346 60.3485 12.6717 60.5199 12.7745L61.343 13.22V13.4257H56.1646V13.22L56.9876 12.7745C57.0048 12.7574 57.0219 12.7488 57.0391 12.7403C57.0562 12.7317 57.0734 12.7231 57.0905 12.706C57.262 12.5689 57.3649 12.3633 57.3649 12.1234C57.3649 12.0549 57.3649 11.952 57.3306 11.8835L56.3018 9.34749H51.9121L50.8833 11.8835C50.849 11.952 50.8147 12.0549 50.8147 12.1577C50.8147 12.4661 50.9862 12.706 51.2262 12.8431L51.9464 13.22V13.4257H48.1741V13.22L48.9971 12.7745C49.1686 12.706 49.2715 12.5689 49.3401 12.3976L54.0041 0.779885H55.513L60.177 12.3976ZM54.0383 3.89849L52.2208 8.42219H55.8559L54.0383 3.89849Z" fill="white"/>
</g>
<defs>
<clipPath id="clip0_238_439">
<rect width="81.7778" height="16" fill="white"/>
</clipPath>
</defs>
</svg>
