<svg width="126" height="16" viewBox="0 0 126 16" fill="none" xmlns="http://www.w3.org/2000/svg">
<g clip-path="url(#clip0_238_428)">
<path d="M120.529 0.427069H119.599V0.0512695H121.884V0.427069H120.957V3.03197H120.529V0.427069Z" fill="white"/>
<path d="M122.316 0.0512695H123.023L123.963 2.52368L124.884 0.0512695H125.589V3.03197H125.161V0.453568H125.153L124.165 3.03197H123.741L122.755 0.453568H122.746V3.03197H122.316V0.0512695Z" fill="white"/>
<path d="M22.8351 0H18.578V15.9093H22.8351V0Z" fill="white"/>
<path d="M47.9912 0.0131836H53.213L59.3736 15.9999H54.7022L53.5101 12.5892H47.5098L46.2483 15.9999H41.9197L47.9912 0.0131836ZM50.6013 3.31107H50.5567L48.4938 9.56476H52.502L50.6013 3.31107Z" fill="white"/>
<path d="M61.4465 0.0112305H68.8007C71.7765 0.0112305 73.9996 1.31569 73.9996 4.06393C73.9996 6.08265 72.9694 7.20603 71.1831 7.79944V7.84401C73.3099 8.28204 74.412 9.4259 74.412 11.3752C74.412 15.1998 71.0446 15.9996 68.1824 15.9996H61.4465V0.0112305ZM65.7055 12.9803H66.9686C68.5252 12.9803 70.1509 12.7487 70.1509 11.1238C70.1509 9.38053 68.4791 9.22274 67.0148 9.22274H65.7051L65.7055 12.9803ZM65.7055 6.33519H66.898C68.296 6.33519 69.7374 5.99151 69.7374 4.63887C69.7374 3.1722 68.3654 3.03811 66.9458 3.03811H65.7055V6.33519Z" fill="white"/>
<path d="M80.1795 9.97796L74.2719 0.0112305H79.1721L82.3114 6.42552L85.4033 0.0112305H90.3072L84.4401 9.97796V16H80.1795V9.97796Z" fill="white"/>
<path d="M95.998 3.1722H92.0605V0.0112305H104.2V3.1722H100.262V16H95.998V3.1722Z" fill="white"/>
<path d="M106.228 0.0112305H117.498V3.03811H110.486V6.33519H117.106V9.35805H110.486V12.9803H117.748V16H106.228V0.0112305Z" fill="white"/>
<path d="M8.90357 3.51184C6.06941 3.74752 4.52204 5.60805 4.52204 8.01582C4.52204 10.3569 6.69133 12.3247 8.78633 12.3247L9.24644 12.3199H10.0209C10.0209 12.3199 10.5344 12.3199 10.5381 11.8192V6.79447H14.9127C14.9127 9.63063 14.9023 16 14.9023 16C14.9023 16 10.5846 15.9963 8.07769 15.9963C3.36333 15.9963 0 12.1018 0 8.01582C0 3.59616 3.65843 -0.0951949 8.2138 0.0682138L14.7578 0.0886901L14.7546 3.51144L8.90357 3.51184Z" fill="white"/>
<path d="M34.2191 3.51195C31.3837 3.74723 29.8392 5.60776 29.8392 8.01593C29.8392 10.3571 32.0052 12.3248 34.1018 12.3248L34.5603 12.32H35.3368C35.3368 12.32 35.8467 12.32 35.8503 11.8193V6.79458H40.2178C40.2178 9.63075 40.2106 16.0001 40.2106 16.0001C40.2106 16.0001 35.8965 15.9965 33.3912 15.9965C28.6792 15.9965 25.3195 12.102 25.3195 8.01593C25.3195 3.59627 28.9743 -0.0950829 33.5317 0.0687273L40.0648 0.0892036L40.0632 3.51195H34.2191Z" fill="white"/>
</g>
<defs>
<clipPath id="clip0_238_428">
<rect width="125.589" height="16" fill="white"/>
</clipPath>
</defs>
</svg>
