<svg width="24" height="24" viewBox="0 0 24 24" fill="none" xmlns="http://www.w3.org/2000/svg">
<path d="M22 22L17.1745 17.1745M17.1745 17.1745C17.9999 16.3491 18.6547 15.3692 19.1014 14.2907C19.5481 13.2122 19.778 12.0563 19.778 10.889C19.778 9.72169 19.5481 8.5658 19.1014 7.48734C18.6547 6.40887 17.9999 5.42895 17.1745 4.60353C16.3491 3.77811 15.3692 3.12335 14.2907 2.67664C13.2122 2.22992 12.0563 2 10.889 2C9.72169 2 8.5658 2.22992 7.48734 2.67664C6.40887 3.12335 5.42895 3.77811 4.60353 4.60353C2.93652 6.27055 2 8.5315 2 10.889C2 13.2465 2.93652 15.5075 4.60353 17.1745C6.27055 18.8415 8.5315 19.778 10.889 19.778C13.2465 19.778 15.5075 18.8415 17.1745 17.1745Z" stroke="#00BEE6" stroke-width="2.5" stroke-linecap="round" stroke-linejoin="round"/>
</svg>
