<svg width="20" height="26" viewBox="0 0 20 26" fill="none" xmlns="http://www.w3.org/2000/svg">
<path d="M9.9836 13.0788C13.3413 13.0788 16.0733 10.347 16.0733 6.98937C16.0733 3.63175 13.3419 0.899994 9.9841 0.899994C6.62638 0.899994 3.89453 3.63174 3.89453 6.98981C3.8977 10.3443 6.62949 13.0756 9.9836 13.0788ZM9.9837 3.57901C11.8643 3.57901 13.3942 5.10885 13.3942 6.98937C13.3942 8.86989 11.8643 10.3997 9.9837 10.3997C8.1031 10.3997 6.5732 8.86989 6.5732 6.98937C6.5732 5.10885 8.1031 3.57901 9.9837 3.57901Z" fill="#00BEE6" stroke="#00BEE6" stroke-width="0.2"/>
<path d="M19.068 23.7721C19.0654 21.4872 18.1816 19.3349 16.5751 17.6847H16.5806L16.4045 17.5131C14.6896 15.842 12.4091 14.9204 9.985 14.9178C7.5609 14.9204 5.27971 15.842 3.56483 17.513C1.84939 19.1842 0.902652 21.4076 0.899902 23.7725C0.899902 24.5072 1.51248 25.1001 2.25954 25.1001C3.00664 25.1001 3.61919 24.5068 3.61919 23.7726C3.61919 20.3566 6.4719 17.5731 9.984 17.5731C13.496 17.5731 16.3488 20.357 16.3488 23.7726C16.3488 24.5073 16.9613 25.1001 17.7084 25.1001C18.4555 25.1001 19.068 24.5067 19.068 23.7721Z" fill="#00BEE6" stroke="#00BEE6" stroke-width="0.2"/>
</svg>
