<svg width="24" height="24" viewBox="0 0 24 24" fill="none" xmlns="http://www.w3.org/2000/svg">
<path d="M23.9494 9.88996L22.8694 13.93C22.2296 16.33 20.0396 18.01 17.5595 18.01H7.24955C5.49974 18.01 4.00961 16.6998 3.77946 14.9702L2.24011 3.42978C2.21011 3.17994 1.99027 2.99994 1.73997 2.99994H1.49013C0.669831 2.99994 0 2.33011 0 1.49997C0 0.669831 0.669831 0 1.49997 0H1.74981C3.49962 0 4.98975 1.31013 5.2199 3.03978L5.48005 4.99959H11.5001C12.3302 4.99959 13.0001 5.66942 13.0001 6.49956C13.0001 7.3297 12.3302 7.99953 11.5001 7.99953H5.88035L6.76018 14.5694C6.79018 14.8192 7.01002 14.9992 7.26033 14.9992H17.56C18.6901 14.9992 19.6801 14.2394 19.9698 13.1491L21.0497 9.10904C21.2597 8.3089 22.0899 7.82891 22.8896 8.04922C23.6897 8.25921 24.1594 9.09029 23.9494 9.88996ZM6.99971 19.9998C5.89957 19.9998 4.99959 20.8997 4.99959 21.9999C4.99959 23.1 5.89957 24 6.99971 24C8.09984 24 8.99983 23.1 8.99983 21.9999C8.99983 20.8997 8.09984 19.9998 6.99971 19.9998ZM16.9994 19.9998C15.8992 19.9998 14.9992 20.8997 14.9992 21.9999C14.9992 23.1 15.8992 24 16.9994 24C18.0995 24 18.9995 23.1 18.9995 21.9999C18.9995 20.8997 18.0995 19.9998 16.9994 19.9998Z" fill="white"/>
</svg>
