<?xml version="1.0" encoding="UTF-8"?>
<svg id="Layer_2" data-name="Layer 2" xmlns="http://www.w3.org/2000/svg" xmlns:xlink="http://www.w3.org/1999/xlink" viewBox="0 0 235.13 72.6">
  <defs>
    <style>
      .cls-1 {
        fill: url(#linear-gradient);
      }

      .cls-1, .cls-2, .cls-3 {
        stroke-width: 0px;
      }

      .cls-2 {
        fill: url(#linear-gradient-2);
      }

      .cls-3 {
        fill: #00bee6;
      }
    </style>
    <linearGradient id="linear-gradient" x1="12.2" y1="20.11" x2="47.49" y2="55.4" gradientUnits="userSpaceOnUse">
      <stop offset="0" stop-color="#00b5d3"/>
      <stop offset="1" stop-color="#034ea2"/>
    </linearGradient>
    <linearGradient id="linear-gradient-2" x1="28.85" y1="1.81" x2="59.84" y2="34.74" gradientUnits="userSpaceOnUse">
      <stop offset="0" stop-color="#034ea2"/>
      <stop offset="1" stop-color="#00b5d3"/>
    </linearGradient>
  </defs>
  <g id="_1" data-name="1">
    <g>
      <g>
        <path class="cls-3" d="m94.2,16.1h-7.92v-7.01c0-1.01-.82-1.84-1.84-1.84h-6.42c-1.01,0-1.84.82-1.84,1.84v7.01h-4.75c-1.01,0-1.84.82-1.84,1.84v6.08c0,1.01.82,1.84,1.84,1.84h4.75v20.02c0,10.24,4.89,15.44,14.52,15.44,1.4,0,2.7-.11,3.87-.34.85-.17,1.47-.93,1.47-1.81v-5.56c0-.51-.22-1.01-.6-1.36-.38-.35-.89-.52-1.4-.48-.61.05-1.37.11-2.35.11-5.16,0-5.42-2.25-5.42-8.76v-17.27h7.92c1.01,0,1.84-.82,1.84-1.84v-6.08c0-1.01-.82-1.84-1.84-1.84Z"/>
        <path class="cls-3" d="m122.49,15.1c-12.73,0-22.7,10.3-22.7,23.45s10.07,23.45,23.95,23.45c7.49,0,13.87-2.83,17.94-7.97.32-.4.46-.93.37-1.44s-.39-.97-.83-1.26l-5.28-3.38c-.77-.5-1.77-.35-2.38.35-2.13,2.46-5.8,3.93-9.83,3.93-6.76,0-11.47-3.33-13.05-9.18h31.55c.94,0,1.73-.71,1.84-1.64.82-7.47-1.15-14.29-5.54-19.19-4.06-4.53-9.91-7.12-16.05-7.12Zm0,9.68c5.88,0,9.8,3.28,11.11,9.26h-22.91c1.51-5.82,5.87-9.26,11.8-9.26Z"/>
        <path class="cls-3" d="m171.05,24.78c4.54,0,8.52,2.12,10.93,5.81.53.8,1.59,1.07,2.42.61l5.47-3.02c.45-.25.78-.68.9-1.18.12-.5.03-1.02-.25-1.45-4.39-6.65-11.49-10.46-19.48-10.46-13.15,0-23.45,10.3-23.45,23.45s10.3,23.45,23.45,23.45c8.01,0,15.11-3.84,19.48-10.54.28-.43.37-.96.24-1.46-.13-.5-.46-.93-.91-1.17l-5.47-2.94c-.85-.46-1.88-.19-2.41.62-2.38,3.64-6.36,5.73-10.93,5.73-7.64,0-13.18-5.76-13.18-13.68s5.54-13.77,13.18-13.77Z"/>
        <path class="cls-3" d="m217.6,15.1c-4.68,0-8.74,1.61-11.85,4.69V1.84c0-1.01-.82-1.84-1.84-1.84h-6.42c-1.01,0-1.84.82-1.84,1.84v57.23c0,1.01.82,1.84,1.84,1.84h6.42c1.01,0,1.84-.82,1.84-1.84v-23.69c0-4.26,2.67-10.6,10.01-10.6,7.99,0,9.18,6.64,9.18,10.6v23.69c0,1.01.82,1.84,1.84,1.84h6.5c1.01,0,1.84-.82,1.84-1.84v-25.86c0-10.15-7.7-18.11-17.52-18.11Z"/>
      </g>
      <path class="cls-1" d="m50.23,64.58l-7.28,7.19c-1.14,1.11-2.96,1.1-4.08-.03l-10.7-10.85h-15.76c-6.85,0-12.41-5.56-12.41-12.41V12.4C0,5.55,5.55,0,12.4,0h25.39c-10.92,0-20.16,6.09-21.68,16.65-.06.15-.11.3-.11.47v26.66c0,.61.5,1.11,1.12,1.11h15.06c1.72,0,3.37.69,4.57,1.91l13.51,13.7c1.12,1.14,1.11,2.96-.03,4.08Z"/>
      <path class="cls-2" d="m60.89,12.4v29.71c0,1.59-1.3,2.89-2.89,2.89h-10.22c-1.59,0-2.89-1.3-2.89-2.89v-24.99c0-.62-.5-1.12-1.12-1.12h-26.65c-.45,0-.83.27-1.01.65C17.63,6.09,26.87,0,37.79,0h10.7c6.85,0,12.4,5.55,12.4,12.4Z"/>
    </g>
  </g>
</svg>