<svg width="64" height="16" viewBox="0 0 64 16" fill="none" xmlns="http://www.w3.org/2000/svg">
<g clip-path="url(#clip0_238_403)">
<path fill-rule="evenodd" clip-rule="evenodd" d="M57.4186 15.8801L61.7414 3.96009C59.5747 3.98889 57.4147 4.20637 55.2857 4.61009L51.2 15.8801H57.4186ZM56.6814 0.737231L55.8529 3.02294C57.9835 2.62146 60.1449 2.40494 62.3129 2.3758L63.1429 0.0900879C60.9744 0.118475 58.8125 0.335002 56.6814 0.737231Z" fill="white"/>
<path fill-rule="evenodd" clip-rule="evenodd" d="M34.1428 13.0501C36.1224 13.4112 38.1306 13.592 40.1428 13.5901C41.49 13.5901 43.7328 13.4315 43.9328 11.6958C44.0128 11.0172 43.2757 10.553 42.1014 9.90582C40.7557 9.16296 39.7214 8.76296 38.5528 7.98582C37.3843 7.20867 36.88 5.97439 37.2671 4.67153C38.4471 0.764386 44.1557 0.1001 47.53 0.1001C49.8064 0.0992669 52.0777 0.315966 54.3128 0.747243L53.5214 2.92724C51.4928 2.55724 44.0843 1.3001 43.74 4.28296C43.6614 4.96296 44.3486 5.40296 45.5257 6.05153C46.8686 6.79296 47.9543 7.2101 49.1214 7.99153C50.2886 8.77296 50.7928 10.0044 50.4071 11.3087C49.2243 15.213 43.5186 15.8801 40.1443 15.8801C37.8678 15.8804 35.5965 15.6627 33.3614 15.2301L34.1428 13.0501Z" fill="white"/>
<path fill-rule="evenodd" clip-rule="evenodd" d="M24.7643 15.88L28.3686 5.93424C29.7857 2.02567 23.0657 3.58424 21.4686 7.98567L18.6114 15.88H12.3814L15.9857 5.93424C17.4029 2.02424 10.68 3.58567 9.08429 7.98567L6.22714 15.88H0L5.72429 0.0942412C7.70572 0.0942412 8.77857 0.549958 9.68 1.43567C10.0011 1.76561 10.2246 2.17798 10.3257 2.6271C11.25 2.04964 12.2182 1.54571 13.2214 1.11996C14.5157 0.612816 16.1243 0.0928126 18.1071 0.0942412C20.09 0.0956698 21.1614 0.549958 22.0614 1.43567C22.3834 1.76541 22.6078 2.17775 22.71 2.6271C23.6336 2.04942 24.6014 1.54548 25.6043 1.11996C26.8986 0.612816 28.5071 0.0928126 30.49 0.0942412C32.4729 0.0956698 33.5443 0.549958 34.4443 1.43567C35.3443 2.32139 35.3243 3.93281 34.9986 4.82853L30.9914 15.88H24.7643Z" fill="white"/>
</g>
<defs>
<clipPath id="clip0_238_403">
<rect width="63.1429" height="16" fill="white"/>
</clipPath>
</defs>
</svg>
