<svg width="102" height="16" viewBox="0 0 102 16" fill="none" xmlns="http://www.w3.org/2000/svg">
<g clip-path="url(#clip0_238_412)">
<path fill-rule="evenodd" clip-rule="evenodd" d="M-24.2617 14.4664V14.4664ZM97.1077 7.23689H91.8892V1.84612H97.3292C98.6092 1.84612 99.5938 2.83074 99.5938 4.03689C99.5938 4.16384 99.5955 4.28639 99.5972 4.40509C99.6095 5.29918 99.6188 5.97537 98.88 6.67074C98.4369 7.03997 97.92 7.23689 97.1077 7.23689ZM90.0677 0.172274V16.0738C90.0677 16.1723 90.0923 16.1969 90.1908 16.1969H91.8892V9.05843H95.1138C95.2369 9.05843 95.5815 9.69843 95.68 9.89535L97.7477 13.4892C97.9072 13.7285 98.0345 13.9679 98.1687 14.2204C98.2001 14.2794 98.2319 14.3393 98.2646 14.4L99.3231 16.1969H101.391C101.041 15.5371 100.611 14.8092 100.184 14.0885L100.183 14.0871C99.7981 13.437 99.4166 12.7927 99.1015 12.2092C99.0178 12.0417 98.6846 11.4733 98.3275 10.8641L98.3271 10.8635C97.8447 10.0406 97.3187 9.14328 97.3046 9.05843C97.5508 9.05843 97.9446 9.0092 98.1908 8.95997C98.4861 8.91074 98.7323 8.81227 98.9538 8.71381C100.382 8.12304 101.391 6.6215 101.391 5.07074V4.0615C101.391 1.87074 99.5938 0.0738122 97.4031 0.0738122H90.1908C90.1169 0.0491968 90.0677 0.0738125 90.0677 0.172274ZM7.01538 7.23689H1.79692V1.84612H7.28615C8.46769 1.84612 9.47692 2.83074 9.47692 3.86458C9.47692 3.99391 9.47923 4.12401 9.48154 4.25401C9.49769 5.16324 9.51376 6.06772 8.73846 6.67074C8.4923 6.86766 8.34461 6.96612 8.02461 7.0892C7.72923 7.18766 7.38461 7.23689 7.01538 7.23689ZM-2.68579e-06 16.1723H1.79692V9.03381H5.02153C5.11582 9.03381 5.16678 9.13495 5.24079 9.28188C5.26339 9.32673 5.28814 9.37585 5.31692 9.42766C5.36615 9.51381 5.40923 9.58151 5.4523 9.6492C5.49538 9.71689 5.53846 9.78458 5.58769 9.87074C5.75325 10.1708 5.94057 10.4883 6.12952 10.8086C6.39004 11.2501 6.65367 11.697 6.86769 12.1107L9.20615 16.1723H11.2738C11.2357 16.0006 10.754 15.2079 10.459 14.7225C10.3733 14.5815 10.3034 14.4664 10.2646 14.4L8.98461 12.1846C8.76709 11.799 8.50987 11.3657 8.24802 10.9247L8.24784 10.9244C7.85783 10.2675 7.4576 9.5934 7.16308 9.03381C7.72923 9.03381 8.39384 8.91074 8.81231 8.71381C9.05846 8.61535 9.25538 8.51689 9.4523 8.3692C9.99384 7.99997 10.56 7.4092 10.8554 6.84304C11.3098 5.97548 11.2962 5.21193 11.2801 4.3051C11.277 4.13128 11.2738 3.9522 11.2738 3.76612C11.2738 3.02766 10.9292 2.21535 10.5108 1.67381C9.7723 0.664581 8.64 0.0491972 7.33538 0.0491972H-2.68579e-06V16.1723ZM45.0461 1.84612H53.3169L50.2154 7.21227C49.7631 7.9769 49.3108 8.7745 48.8584 9.57211L48.8581 9.57269C48.2767 10.598 47.6953 11.6232 47.1138 12.5784C47.0564 12.6769 46.999 12.7726 46.9416 12.8683C46.8267 13.0598 46.7118 13.2512 46.5969 13.4646C46.5108 13.6246 46.4246 13.7723 46.3385 13.92C46.2523 14.0677 46.1662 14.2154 46.08 14.3754L45.0461 16.1969H55.3846C55.4156 16.1411 55.4933 16.0106 55.5927 15.8436C55.8883 15.3471 56.3754 14.5289 56.3938 14.4H48.1477L48.6646 13.5138C48.7508 13.3538 48.8369 13.2061 48.9231 13.0584C49.0092 12.9107 49.0954 12.763 49.1815 12.603C49.5999 11.9017 50.0305 11.1389 50.4612 10.376L50.4615 10.3753L50.462 10.3746C50.8926 9.61176 51.3232 8.84896 51.7415 8.14766L54.8431 2.7815C54.9908 2.53535 56.32 0.270735 56.3692 0.0738122H45.0461V1.84612ZM21.6123 16.1723H23.5569C23.5851 16.0597 23.6453 15.9151 23.7056 15.7704C23.7508 15.6619 23.796 15.5534 23.8277 15.4584L24.6892 13.3415C24.9505 12.6797 25.224 12.0179 25.5012 11.3473C25.6158 11.0701 25.731 10.7915 25.8461 10.5107L28.1108 4.8492C28.2218 4.97877 30.3511 10.286 31.5889 13.3714L31.5893 13.3724C31.9974 14.3897 32.3086 15.1653 32.4185 15.4338C32.5169 15.6554 32.64 15.9507 32.6892 16.1723H34.6338L28.3077 0.541505C28.2831 0.467659 28.2585 0.393813 28.2092 0.295351C28.1948 0.252124 28.1888 0.2342 28.1814 0.216895C28.1762 0.204636 28.1702 0.192687 28.16 0.172274C28.1354 0.0984279 28.1354 0.0984279 28.0862 0.0491972L23.2123 12.1354L22.4 14.1292C22.2769 14.4492 22.1292 14.8184 21.9815 15.1384L21.6123 16.1723ZM67.5692 1.84612H77.8831C77.9072 1.71335 78.1385 1.33794 78.3709 0.960733C78.6124 0.568659 78.8551 0.174654 78.8677 0.0491972H67.5938L67.5692 1.84612ZM67.5692 16.1723H77.8831C77.9003 16.0689 78.3152 15.3631 78.6134 14.8557C78.7414 14.6379 78.8479 14.4567 78.8923 14.3754H67.5692V16.1723ZM67.5692 8.91073C67.5692 9.0092 67.5938 9.03381 67.6923 9.03381H77.76C77.8456 9.03381 77.9073 8.92675 77.9784 8.80359C78.0095 8.74959 78.0425 8.69249 78.08 8.63997L78.6215 7.70458C78.6519 7.65146 78.6799 7.60068 78.707 7.55152L78.7073 7.55092C78.7681 7.44084 78.8243 7.33887 78.8923 7.23689H67.5692V8.91073ZM-19.8123 25.48C-19.8092 25.4769 -19.8154 25.4646 -19.8154 25.4277C-19.8488 25.4499 -19.862 25.4269 -19.8665 25.4109C-19.8656 25.4225 -19.8646 25.443 -19.8646 25.4769C-19.8277 25.4769 -19.8154 25.483 -19.8123 25.48Z" fill="#00FF00"/>
</g>
<defs>
<clipPath id="clip0_238_412">
<rect width="101.415" height="16" fill="white"/>
</clipPath>
</defs>
</svg>
