<svg width="36" height="24" viewBox="0 0 36 24" fill="none" xmlns="http://www.w3.org/2000/svg">
<rect width="36" height="24" rx="2" fill="white"/>
<path d="M11.3787 19L12.15 17.1899L10.6437 13.8171H11.5487L12.57 16.2064L13.54 13.8171H14.4287L12.2387 19H11.3787ZM8.26375 17.4373C7.37875 17.4373 6.4575 16.7507 6.4575 15.5934C6.4575 14.4169 7.3475 13.7459 8.27625 13.7459C8.76 13.7459 9.195 13.939 9.45875 14.2419V13.8171H10.305V17.3649H9.45875V16.9039C9.31336 17.0732 9.1306 17.209 8.92383 17.3013C8.71706 17.3936 8.49153 17.44 8.26375 17.4373ZM3.00625 17.3649V12.9411H4.57875C5.5275 12.9411 6.22875 13.6422 6.22875 14.5158C6.22875 15.3943 5.52625 16.099 4.5725 16.099H3.8625V17.3661L3.00625 17.3649ZM8.4 16.6867C9.02875 16.6867 9.5 16.1956 9.5 15.5838C9.5 14.984 9.02875 14.4905 8.4 14.4905C8.25222 14.4901 8.10587 14.5183 7.96955 14.5734C7.83324 14.6285 7.70972 14.7094 7.60628 14.8113C7.50284 14.9131 7.42157 15.034 7.36725 15.1666C7.31293 15.2993 7.28666 15.4412 7.29 15.5838C7.29 16.2016 7.7725 16.6867 8.4 16.6867ZM3.8625 15.3328H4.5125C5.0225 15.3328 5.37 14.9708 5.37 14.5158C5.37212 14.4074 5.3513 14.2998 5.30881 14.1994C5.26632 14.0991 5.20306 14.0082 5.1229 13.9322C5.04273 13.8563 4.94736 13.797 4.84262 13.7579C4.73787 13.7188 4.62597 13.7008 4.51375 13.7049H3.8625V15.3328ZM4.55875 10.4299C3.75375 10.4299 3 10.1523 3 9.22918V8.9094H4.15L4.1525 9.31124C4.1525 9.5369 4.315 9.68533 4.5825 9.68533C4.8675 9.68533 4.96375 9.54414 4.99875 9.40537C5.02743 9.30558 5.02526 9.19988 4.9925 9.10127C4.77125 8.56549 3.2475 8.32173 3.06125 7.47582C3.02053 7.29192 3.01756 7.10211 3.0525 6.91711C3.165 6.24134 3.7875 6 4.55 6C5.15625 6 5.995 6.13757 5.995 7.03899V7.33101H4.9275V7.07398C4.9275 6.84832 4.7775 6.6999 4.5275 6.6999C4.25875 6.6999 4.16625 6.84712 4.13625 6.97986C4.12139 7.05164 4.12224 7.12562 4.13875 7.19707C4.26125 7.68096 5.88875 7.9392 6.07 8.80563C6.0875 8.89251 6.125 9.12661 6.0725 9.4838C5.97125 10.1753 5.335 10.4299 4.56 10.4299H4.55875ZM18.5013 10.4082C17.7037 10.4082 16.9587 10.1342 16.9587 9.22074V8.90337H18.0975V9.29917C18.0975 9.52242 18.2587 9.67326 18.5237 9.67326C18.8075 9.67326 18.9025 9.53207 18.9375 9.39571C18.9658 9.2967 18.9637 9.19187 18.9312 9.09403C18.7125 8.56308 17.2037 8.32052 17.02 7.48185C16.9788 7.30008 16.9754 7.11223 17.01 6.92917C17.1225 6.26065 17.7413 6.02051 18.495 6.02051C19.095 6.02051 19.9237 6.15929 19.9237 7.05226V7.34187H18.8663V7.08605C18.8663 6.86281 18.7213 6.71559 18.4725 6.71559C18.2075 6.71559 18.1112 6.86039 18.0812 6.99313C18.0683 7.0636 18.0704 7.13587 18.0875 7.20551C18.2075 7.68579 19.8188 7.94161 19.9988 8.79838C20.0175 8.88648 20.0538 9.11817 20.0025 9.47174C19.9013 10.1559 19.27 10.4082 18.5025 10.4082H18.5013ZM22.5312 10.3925C21.7437 10.3925 21.1087 10.1391 21.0338 9.36675C21.0267 9.27722 21.0234 9.18744 21.0238 9.09765V6.12791H22.1075V9.19057C22.1075 9.24367 22.1075 9.30279 22.1175 9.34744C22.1388 9.45001 22.2325 9.64671 22.5312 9.64671C22.8288 9.64671 22.92 9.45001 22.9412 9.34744C22.9495 9.29555 22.9528 9.24305 22.9513 9.19057V6.12791H24.035V9.09765C24.0352 9.18784 24.0319 9.27801 24.025 9.36796C23.95 10.1403 23.32 10.3925 22.5312 10.3925ZM31.4762 10.3478C30.7162 10.3478 30.0413 10.0811 29.97 9.32693C29.9599 9.23592 29.9541 9.14452 29.9525 9.053V7.31291C29.9525 7.2393 29.9637 7.10777 29.9725 7.03899C30.0687 6.26548 30.7162 6.0181 31.4762 6.0181C32.2362 6.0181 32.9012 6.26307 32.98 7.03899C32.9937 7.17173 32.99 7.31291 32.99 7.31291V7.45048H31.91V7.21758C31.91 7.21758 31.91 7.12104 31.8975 7.06071C31.8775 6.9702 31.795 6.75903 31.4663 6.75903C31.155 6.75903 31.0638 6.95934 31.0413 7.06071C31.0287 7.12515 31.0228 7.19063 31.0238 7.2562V9.14713C31.0231 9.19958 31.0265 9.25202 31.0338 9.304C31.0538 9.41502 31.1637 9.60568 31.4737 9.60568C31.7837 9.60568 31.89 9.41502 31.91 9.304C31.9182 9.25211 31.9216 9.1996 31.92 9.14713V8.54739H31.48V7.94403H33V9.05421C33 9.13144 32.9963 9.18936 32.9837 9.32693C32.9125 10.0811 32.2362 10.3478 31.4762 10.3478ZM6.795 10.2694L7.59 6.12791H9.4975L10.2887 10.2694H9.13625L8.56625 6.51165L8.54125 6.51406L7.95375 10.2694H6.795ZM11.145 10.2694L11.2375 6.12791H12.9875L13.5138 9.29555H13.54L14.0675 6.12791H15.8162L15.91 10.2694H14.8387L14.8138 6.54906H14.7875L14.0713 10.2694H12.9838L12.2675 6.55027H12.245L12.2188 10.2706L11.145 10.2694ZM25.23 10.2259V6.12791H26.8212L27.8088 9.37761H27.8312L27.7725 6.12791H28.8363V10.2259H27.31L26.2488 6.86281H26.2262L26.285 10.2259H25.23Z" fill="#252427"/>
</svg>
