<svg width="36" height="24" viewBox="0 0 36 24" fill="none" xmlns="http://www.w3.org/2000/svg">
<g clip-path="url(#clip0_232_1024)">
<path d="M33.6 24H2.4C1.76348 24 1.15303 23.7471 0.702944 23.2971C0.252856 22.847 0 22.2365 0 21.6L0 2.4C0 1.76348 0.252856 1.15303 0.702944 0.702944C1.15303 0.252856 1.76348 0 2.4 0L33.6 0C34.2365 0 34.847 0.252856 35.2971 0.702944C35.7471 1.15303 36 1.76348 36 2.4V21.6C36 22.2365 35.7471 22.847 35.2971 23.2971C34.847 23.7471 34.2365 24 33.6 24ZM17.84 14.762L17.481 17.012C18.3985 17.3981 19.3892 17.5793 20.384 17.543H20.373C21.5387 17.611 22.6931 17.2821 23.648 16.61L23.631 16.621C24.0209 16.3345 24.3379 15.9602 24.5564 15.5286C24.7749 15.0969 24.8889 14.6198 24.889 14.136V14.121C24.889 13.021 24.153 12.108 22.702 11.402C22.3061 11.2109 21.9273 10.9861 21.57 10.73L21.593 10.746C21.4932 10.6814 21.4101 10.594 21.3505 10.4911C21.2909 10.3883 21.2564 10.2727 21.25 10.154V10.152C21.2575 10.0282 21.2961 9.9082 21.3624 9.8033C21.4287 9.6984 21.5204 9.61196 21.629 9.552L21.633 9.55C21.9687 9.35636 22.3544 9.2669 22.741 9.293H22.735H22.815L22.892 9.292C23.536 9.292 24.147 9.431 24.698 9.68L24.67 9.669L24.904 9.794L25.263 7.623C24.537 7.34147 23.7647 7.19834 22.986 7.201H22.937H22.94C21.8133 7.15167 20.7023 7.47965 19.783 8.133L19.799 8.122C19.4169 8.39169 19.1052 8.74915 18.8899 9.16434C18.6746 9.57953 18.5622 10.0403 18.562 10.508V10.513C18.552 11.571 19.314 12.485 20.828 13.233C21.228 13.408 21.573 13.622 21.882 13.879L21.875 13.873C21.9642 13.948 22.0367 14.0409 22.0878 14.1456C22.139 14.2503 22.1677 14.3645 22.172 14.481V14.485C22.172 14.804 21.982 15.078 21.708 15.201L21.703 15.203C21.403 15.361 21.047 15.453 20.669 15.453H20.623H20.625H20.55C19.693 15.453 18.881 15.263 18.153 14.923L18.188 14.938L17.845 14.766L17.84 14.762ZM27.965 15.903H31.28C31.3333 16.1317 31.4377 16.6317 31.593 17.403H34L31.906 7.372H29.906C29.6201 7.34666 29.3336 7.41422 29.0891 7.56465C28.8447 7.71508 28.6553 7.94035 28.549 8.207L28.546 8.216L24.706 17.403H27.426L27.972 15.904L27.965 15.903ZM14.891 7.372L13.265 17.403H15.859L17.484 7.372H14.891ZM4.922 9.419L7.032 17.387H9.766L13.841 7.372H11.095L8.561 14.216L8.295 12.825L7.391 8.216C7.34254 7.95016 7.1927 7.71355 6.97311 7.55608C6.75351 7.39861 6.48133 7.33261 6.214 7.372L6.22 7.371H2.033L2.002 7.574C5.226 8.393 7.344 10.16 8.298 12.824C8.00484 12.0628 7.5528 11.3728 6.972 10.8L6.971 10.799C6.40041 10.2131 5.7179 9.74792 4.964 9.431L4.924 9.416L4.922 9.419ZM30.859 13.84H28.699C28.845 13.4547 29.189 12.5213 29.731 11.04L29.777 10.899L29.937 10.493C30.003 10.327 30.047 10.191 30.077 10.087L30.265 10.946L30.858 13.836L30.859 13.84Z" fill="white"/>
</g>
<defs>
<clipPath id="clip0_232_1024">
<rect width="36" height="24" fill="white"/>
</clipPath>
</defs>
</svg>
