<svg width="36" height="24" viewBox="0 0 36 24" fill="none" xmlns="http://www.w3.org/2000/svg">
<g clip-path="url(#clip0_232_1061)">
<rect width="36" height="24" rx="2" fill="white"/>
<path fill-rule="evenodd" clip-rule="evenodd" d="M24.9593 11.9573H23.3745L24.1431 9.76739L24.9593 11.9573ZM-18.8625 9.49036L-20.4646 11.0925L-20.5445 11.1712L-21.4331 12.0609L-22.2429 12.871L-22.3219 12.9508H-22.3227L-23.0736 13.7006V13.7017L-23.1524 13.7804C-23.3775 14.0056 -23.6263 14.1901 -23.8907 14.3363C-24.0246 14.41 -24.1614 14.4731 -24.3014 14.527C-24.6135 14.6473 -24.9411 14.7179 -25.2709 14.7387C-25.473 14.7522 -25.6784 14.7469 -25.8796 14.7221C-26.315 14.67 -26.7424 14.5312 -27.1322 14.3053C-27.2992 14.2089 -27.4703 14.1082 -27.6125 13.9672C-27.6134 13.9672 -27.6134 13.9672 -27.6145 13.9661L-30.6871 10.8938C-30.7379 10.8375 -30.7835 10.7768 -30.8218 10.7113C-30.9193 10.5463 -30.9753 10.3551 -30.9753 10.1502C-30.9753 10.1179 -30.9742 10.0858 -30.9712 10.0546C-30.9671 10.0071 -30.9598 9.96106 -30.9504 9.91662L-30.9319 9.84301C-30.8904 9.70609 -30.8229 9.57669 -30.7295 9.46024C-30.7047 9.43065 -30.6788 9.40148 -30.6508 9.37231L-30.5989 9.32119L-27.4911 6.21234H-27.49L-25.6069 4.32956C-25.1869 3.90945 -24.5179 3.89057 -24.0774 4.27536L-18.8625 9.49036ZM17.024 8.17234L18.524 8.16672H20.3455C21.3472 8.16672 22.167 8.98646 22.167 9.98821V10.2125C22.167 11.2147 21.3467 11.9782 20.3455 12.0084L19.5145 12.034C20.1825 11.7269 20.462 10.951 20.3787 10.2524C20.3117 9.69124 20.0229 9.15202 19.5415 9.14184L19.238 9.13516V14.1279C19.238 14.225 19.2549 14.2655 19.306 14.3508C19.3872 14.4867 19.4961 14.6225 19.608 14.7582C19.6376 14.7934 19.6668 14.8286 19.696 14.8638H17.1125C17.1514 14.8164 17.1892 14.7683 17.2255 14.7189C17.3037 14.6118 17.3732 14.4989 17.4253 14.3728C17.459 14.2915 17.4754 14.2315 17.4754 14.1451V8.78198C17.465 8.50251 17.187 8.34352 17.024 8.17234ZM29.4296 11.7488L27.0837 8.38553L26.8451 8.16683H29.1576L30.7246 10.7094L30.8508 10.6066L31.7978 9.19869C32.0308 8.85272 31.9992 8.45096 31.6674 8.16683H33.8523L31.3266 11.7484L31.3255 14.347L31.7706 14.8762H29.0563L29.4386 14.3549C29.4388 13.4886 29.4076 12.6126 29.4296 11.7488ZM23.0602 8.16672C23.2473 8.42381 23.303 8.51428 23.3239 8.74274C23.3382 8.90214 23.3275 8.99314 23.2764 9.14184L21.5316 14.2014C21.4498 14.4093 21.2811 14.6392 21.0353 14.8623H22.9395C22.7979 14.7371 22.708 14.5877 22.6748 14.41C22.6452 14.2476 22.6461 14.1867 22.6815 14.0305L23.0684 12.8287H25.2844L25.6298 13.7546C25.6661 13.8517 25.6866 13.9418 25.6958 14.0459C25.7259 14.3916 25.6151 14.6764 25.3406 14.8774H28.3258C28.033 14.6166 27.7641 14.3435 27.6123 14.012L25.4331 8.16662L23.0602 8.16672Z" fill="#252427"/>
<path d="M3.0167 8.13701H5.10238L6.85281 13.1558L8.33744 8.99864C8.36449 8.83711 8.34105 8.78451 8.27922 8.64546C8.19691 8.47683 8.10899 8.31275 8.02722 8.14412H9.58493C9.49245 8.48351 9.35595 8.856 9.23843 9.19794L7.22688 15.0431C6.67802 14.9337 6.06573 14.7164 5.59249 14.2677C5.23623 13.9301 5.10949 13.5463 4.93375 13.0886L3.25184 8.63422C3.18534 8.45848 3.10357 8.30108 3.0167 8.13701Z" fill="#252427"/>
<path fill-rule="evenodd" clip-rule="evenodd" d="M11.3435 10.489V14.0751C11.3435 14.2054 11.3705 14.24 11.4402 14.3294L11.4667 14.3635L11.8775 14.899H9.91457C10.0017 14.7664 10.0885 14.6339 10.1752 14.5013L10.2462 14.3929L10.2636 14.3646C10.3366 14.2464 10.3684 14.1949 10.3684 14.0449V9.0346L9.81646 8.13712H11.851L15.1448 12.3794V8.99875C15.1448 8.83722 15.1126 8.78462 15.0273 8.64557C14.9721 8.56125 14.9156 8.47807 14.8592 8.3949C14.8027 8.31172 14.7462 8.22854 14.691 8.14422H16.652L16.2431 8.67983L16.2166 8.714C16.1469 8.80322 16.12 8.83777 16.12 8.9681V15.0705C15.3774 14.9726 14.6854 14.7909 14.07 14.0048L11.3435 10.489Z" fill="#252427"/>
</g>
<defs>
<clipPath id="clip0_232_1061">
<rect width="36" height="24" rx="2" fill="white"/>
</clipPath>
</defs>
</svg>
